Coordinates
version=1
nRows=29
nColumns=24
inDegrees=yes

Units are S.I. units (second, meters, Newtons, ...)
Angles are in degrees.

endheader
time	pelvis_tilt	pelvis_list	pelvis_rotation	pelvis_tx	pelvis_ty	pelvis_tz	hip_flexion_r	hip_adduction_r	hip_rotation_r	knee_angle_r	ankle_angle_r	subtalar_angle_r	mtp_angle_r	hip_flexion_l	hip_adduction_l	hip_rotation_l	knee_angle_l	ankle_angle_l	subtalar_angle_l	mtp_angle_l	lumbar_extension	lumbar_bending	lumbar_rotation
      0.57100000	     -0.16446316	      6.07317794	      0.36836783	     -0.85340896	      0.99363922	      0.27028461	     24.70557106	     -5.36416674	     -6.69534369	     -2.63754059	      4.73947200	     -3.08099171	     12.25057897	    -18.77364841	      7.74953385	      6.31594416	     -3.01804595	      7.92538049	    -11.79748493	      4.71684865	     -5.84544742	     -7.27509587	     -3.23848598
      0.57516667	     -0.16900553	      6.01617022	      0.40826221	     -0.84722868	      0.99306483	      0.27079046	     24.74806319	     -5.30933372	     -6.58979874	     -3.05018850	      4.81611081	     -3.20443673	     12.25128074	    -18.88566278	      7.64880323	      6.36601115	     -3.52958820	      7.96366720	    -11.77905079	      4.74192290	     -5.78498280	     -7.16293210	     -3.19579075
      0.57933333	     -0.23264687	      5.95594047	      0.44880322	     -0.84102816	      0.99244967	      0.27136137	     24.83970529	     -5.23960812	     -6.38312826	     -3.48819551	      4.76301679	     -3.49835475	     12.26021942	    -18.87466749	      7.53999008	      6.26772695	     -4.15375963	      8.04588374	    -11.49625695	      4.84560736	     -5.67314080	     -7.06162993	     -3.24166190
      0.58350000	     -0.22560809	      5.88308481	      0.48767207	     -0.83477798	      0.99196210	      0.27189957	     24.85262853	     -5.16298478	     -6.23111376	     -3.98469129	      4.74970604	     -3.75229238	     12.27142564	    -18.94628292	      7.42468893	      6.27241347	     -4.77474527	      8.10155432	    -11.40958796	      4.91461770	     -5.61756357	     -6.93024345	     -3.28913110
      0.58766667	     -0.26190116	      5.79633106	      0.51615311	     -0.82846897	      0.99144350	      0.27249452	     24.89682139	     -5.05815769	     -6.01858609	     -4.49189088	      4.58251493	     -4.12435303	     12.29858072	    -18.93213878	      7.29404613	      6.15324301	     -5.47012866	      8.14458472	    -11.14172251	      5.04537810	     -5.52561178	     -6.79514443	     -3.37112888
      0.59183333	     -0.26360686	      5.70195905	      0.53719078	     -0.82211227	      0.99101633	      0.27310247	     24.89757771	     -4.94375293	     -5.83593513	     -5.03003435	      4.35550110	     -4.47786726	     12.35983481	    -18.93222352	      7.15489739	      5.97368425	     -6.20214610	      8.13605234	    -10.83473454	      5.28959592	     -5.45455332	     -6.64391953	     -3.41533032
      0.59600000	     -0.27492597	      5.62285807	      0.56678028	     -0.81575634	      0.99060474	      0.27369786	     24.92041447	     -4.84905125	     -5.66960974	     -5.63095290	      4.16431268	     -4.80089396	     12.40524132	    -18.90891925	      7.03789182	      5.91316514	     -6.96440924	      8.12995954	    -10.69649135	      5.46282610	     -5.37913073	     -6.51073427	     -3.45901791
      0.60016667	     -0.27991475	      5.52780943	      0.57250877	     -0.80933052	      0.99023192	      0.27434804	     24.92243508	     -4.72445850	     -5.49456775	     -6.22673075	      3.85130706	     -5.16727805	     12.46441650	    -18.85591561	      6.90633393	      5.72482405	     -7.79378769	      8.06537570	    -10.44396912	      5.68002421	     -5.29068549	     -6.36207410	     -3.50050939
      0.60433333	     -0.26360600	      5.42145835	      0.58136851	     -0.80287303	      0.98992135	      0.27501077	     24.89372516	     -4.58766741	     -5.33380664	     -6.83976774	      3.52293924	     -5.53969975	     12.54551717	    -18.80012020	      6.75745530	      5.49216934	     -8.67239980	      7.99581465	    -10.12481399	      5.97412850	     -5.23389478	     -6.19700801	     -3.52654562
      0.60850000	     -0.26757182	      5.32923320	      0.57348838	     -0.79638459	      0.98961813	      0.27569232	     24.89514895	     -4.46064864	     -5.19740323	     -7.48165924	      3.15078923	     -5.86513295	     12.62922214	    -18.69980113	      6.63180517	      5.25658461	     -9.58838945	      7.85321394	     -9.86317508	      6.28435573	     -5.13456520	     -6.04779794	     -3.54515407
      0.61266667	     -0.24442180	      5.22101900	      0.56391928	     -0.78987824	      0.98938665	      0.27640410	     24.85881261	     -4.31392298	     -5.06366206	     -8.12930910	      2.76638890	     -6.20550917	     12.72593823	    -18.59201357	      6.48234236	      4.96169635	    -10.56799826	      7.69429101	     -9.52558916	      6.65897529	     -5.08633826	     -5.88537863	     -3.55038785
      0.61683333	     -0.18439934	      5.10153178	      0.54457339	     -0.78335573	      0.98922389	      0.27712819	     24.78887331	     -4.16041252	     -5.01124812	     -8.79957110	      2.39647580	     -6.42970211	     14.42164198	    -18.48708352	      6.31628684	      4.60192491	    -11.60836793	      7.43895145	     -9.26571624	     13.48097761	     -5.07171827	     -5.69414538	     -3.51981747
      0.62100000	     -0.17202093	      5.01142438	      0.52344363	     -0.77682852	      0.98905026	      0.27789590	     24.76225548	     -4.02504467	     -4.86855310	     -9.46638997	      1.99879205	     -6.78897167	     14.40356209	    -18.31118180	      6.18592771	      4.30250466	    -12.68500229	      7.13383649	     -9.00135113	     13.54796074	     -4.99527593	     -5.56524913	     -3.53669141
      0.62516667	     -0.13612532	      4.90801837	      0.48789167	     -0.77029465	      0.98893335	      0.27869119	     24.71736809	     -3.87615772	     -4.78153264	    -10.15365059	      1.59625668	     -7.04522045	     14.39343405	    -18.11274563	      6.03352350	      3.89845006	    -13.84595640	      6.85187313	     -8.60880826	     13.68705857	     -4.94785405	     -5.40889265	     -3.50934278
      0.62933333	     -0.10720236	      4.80947898	      0.44583005	     -0.76376682	      0.98884054	      0.27951379	     24.68139019	     -3.73086243	     -4.70062056	    -10.84906129	      1.20583987	     -7.26911552	     14.38819994	    -17.87014301	      5.88248766	      3.47547150	    -15.06811043	      6.50459246	     -8.24075260	     13.88508621	     -4.88997577	     -5.26287026	     -3.47588645
      0.63350000	     -0.05938825	      4.70930458	      0.39557006	     -0.75725407	      0.98880064	      0.28036793	     24.62598259	     -3.58226810	     -4.63035071	    -11.55125152	      0.83448188	     -7.45646393	     14.38465352	    -17.61045988	      5.72179723	      3.01870091	    -16.35260523	      6.10928338	     -7.84933899	     14.13517754	     -4.85476980	     -5.11754525	     -3.43429002
      0.63766667	      0.01279344	      4.60355139	      0.32884889	     -0.75076320	      0.98882922	      0.28127247	     24.54416527	     -3.41971455	     -4.54265223	    -12.25340027	      0.43467413	     -7.72602062	     14.34583052	    -17.34938491	      5.54698346	      2.52463021	    -17.66185363	      5.58563453	     -7.52995844	     19.42103912	     -4.85913725	     -4.96432184	     -3.39281491
      0.64183333	      0.05165788	      4.51194972	      0.27320603	     -0.74429632	      0.98883452	      0.28216529	     24.51749167	     -3.28721409	     -4.53465462	    -13.00724386	      0.19211165	     -7.73003815	     14.34244801	    -17.00024116	      5.37806863	      2.03383013	    -19.07162034	      5.07311492	     -7.15999421	     19.47799085	     -4.81286676	     -4.83301193	     -3.32612966
      0.64600000	      0.11869895	      4.41166775	      0.20217411	     -0.73786999	      0.98890793	      0.28310784	     24.45918351	     -3.13658832	     -4.49577680	    -13.75699248	     -0.07408360	     -7.84591044	     14.33063536	    -16.65184497	      5.19072578	      1.51525444	    -20.51844188	      4.53151257	     -6.76276613	     19.60311383	     -4.81229649	     -4.68613299	     -3.25185952
      0.65016667	      0.18091776	      4.31651892	      0.13239176	     -0.73148797	      0.98900442	      0.28407249	     24.40192840	     -2.99193651	     -4.46111231	    -14.49997575	     -0.29157974	     -7.92427527	     14.31089017	    -16.25384124	      4.99589791	      0.99136625	    -22.03222727	      3.91337018	     -6.39583625	     19.78598587	     -4.80745812	     -4.55251852	     -3.17660773
      0.65433333	      0.23999524	      4.22400360	      0.05865456	     -0.72513927	      0.98913531	      0.28507115	     24.33785059	     -2.84654587	     -4.41148456	    -15.22229774	     -0.45364331	     -7.95630317	     14.28734070	    -15.82110043	      4.79542904	      0.48005210	    -23.58494724	      3.22909564	     -6.08393759	     19.97337531	     -4.79799169	     -4.44059618	     -3.10065583
      0.65850000	      0.30629581	      4.12510158	     -0.01150981	     -0.71885933	      0.98929023	      0.28606827	     24.27871212	     -2.69973553	     -4.39628365	    -15.97584859	     -0.58194756	     -8.01248973	     14.24575520	    -15.35694777	      4.57360778	     -0.03728716	    -25.19289139	      2.54520132	     -5.75011187	     20.25122422	     -4.81079719	     -4.29645049	     -3.00828987
      0.66266667	      0.38127750	      4.01394190	     -0.04297782	     -0.71262700	      0.98952710	      0.28706474	     24.16944039	     -2.54710713	     -4.38909150	    -16.66051895	     -0.63291986	     -8.09852809	     14.12774413	    -14.85836036	      4.31481937	     -0.50485067	    -26.85431472	      1.78316365	     -5.43624295	     20.92297172	     -4.84009582	     -4.16312654	     -2.89105336
      0.66683333	      0.49327164	      3.87372766	     -0.15119382	     -0.70643310	      0.98980393	      0.28816832	     24.01865671	     -2.33240981	     -4.30710206	    -17.31727131	     -0.73500524	     -8.11849205	     13.43590566	    -14.38867269	      4.02318143	     -1.09117662	    -28.52084924	      0.98988687	     -5.18816279	     24.24466938	     -4.91410168	     -3.98151661	     -2.74295795
      0.67100000	      0.50185839	      3.83344672	     -0.20623574	     -0.70034213	      0.98997996	      0.28917494	     24.01645006	     -2.25146621	     -4.29167923	    -18.06110614	     -0.63825143	     -8.03846773	     13.42606790	    -13.77813356	      3.85642471	     -1.44677002	    -30.19876784	      0.10492420	     -5.20685570	     24.29765634	     -4.86520738	     -3.94506639	     -2.75593899
      0.67516667	      0.54850131	      3.73628464	     -0.25266902	     -0.69430356	      0.99023426	      0.29018418	     23.93848056	     -2.11170753	     -4.29457751	    -18.73998650	     -0.56488724	     -8.00644634	     13.40291675	    -13.17081941	      3.60367227	     -1.84449515	    -31.93821193	     -0.69929340	     -5.11541520	     24.35840381	     -4.87445609	     -3.82254456	     -2.69194301
      0.67933333	      0.59409635	      3.63926437	     -0.29528798	     -0.68833336	      0.99052215	      0.29121320	     23.84238534	     -1.96668001	     -4.28310244	    -19.37745472	     -0.45711919	     -7.99250468	     13.36760848	    -12.53956097	      3.34438505	     -2.21469152	    -33.68713712	     -1.51222665	     -5.07473958	     24.41074747	     -4.89531569	     -3.70824040	     -2.61717163
      0.68350000	      0.64542418	      3.53419040	     -0.33057500	     -0.68242450	      0.99084443	      0.29223426	     23.72016245	     -1.81379472	     -4.27983764	    -19.97570226	     -0.31023702	     -7.97232108	     13.32584517	    -11.89437048	      3.07029412	     -2.55811472	    -35.44789266	     -2.30480676	     -5.09159488	     24.43649622	     -4.92310123	     -3.58633213	     -2.54593346
      0.68766667	      0.68754127	      3.42249746	     -0.34942029	     -0.67657172	      0.99119979	      0.29324388	     23.57789517	     -1.65492355	     -4.28132254	    -20.51598632	     -0.12831084	     -7.95365163	     13.28903966	    -11.21545229	      2.78416812	     -2.86167916	    -37.21905271	     -3.09641507	     -5.19361054	     24.43125644	     -4.94527090	     -3.47317761	     -2.48692478
